<?xml version="1.0" encoding="UTF-8"?>
<svg id="Layer_1" data-name="Layer 1" xmlns="http://www.w3.org/2000/svg" viewBox="0 0 222.92 218.59">
  <defs>
    <style>
      .cls-1 {
        fill: #171618;
      }

      .cls-2 {
        fill: #010101;
      }
    </style>
  </defs>
  <g id="frame">
    <path d="m222.48,38.14c0,4.03.02,8.06,0,12.09,0,3.34.43,7.09-2.73,9.2-2.14,1.43-4.97,1.38-7.11,0-3.14-2.02-2.97-5.59-2.96-8.91.01-8.25-.02-16.51.11-24.75.09-5.92-2.51-11.19-9.09-11.71-8.66-.68-17.76.06-26.46.08-2.89,0-5.87.23-8.04-2.03-1.75-1.81-2.34-4.67-1.65-7.08,1.93-6.74,11.59-4.74,16.8-4.76,7.67-.03,16.02-.74,23.59.65,6.5,1.19,12.11,5.53,15.05,11.43,3.87,7.77,2.5,17.42,2.5,25.8,0,0,0,0-.01,0Z"/>
    <path d="m.46,36.25c0-7.03-1.17-15.04,1.15-21.8C3.44,9.1,7.67,5.19,12.66,2.74,19.67-.69,27.75.27,35.31.28c3.89,0,7.79.01,11.68.01,3.43,0,7.7-.73,10.5,1.76,4.26,3.79,2.21,11.03-3.37,12-3.75.65-8.07.08-11.86.08-4.31,0-8.62,0-12.93,0-5.87,0-13.73-.91-15.9,6.33-.97,3.23-.28,7.46-.32,10.82-.06,3.97-.1,7.94-.09,11.91.01,5.22,1.96,20.82-8.4,16.97C.47,58.61.35,54.62.34,50.85c-.01-4.86,0-9.73,0-14.59.04,0,.08,0,.12,0Z"/>
    <path d="m222.72,178.93c0,12.75,2.58,28.57-10.63,35.87-6.17,3.41-13.53,3.07-20.36,3.11-4.05.02-8.09-.05-12.14-.05-3.45,0-8.57.93-11.81-.4-2.68-1.1-3.65-4.59-3.12-7.22.72-3.55,3.37-5.19,6.76-5.44,8.2-.59,16.58.01,24.8-.07,6.62-.07,13.18-.38,14.25-8.43,1.09-8.25.13-17.19.14-25.51,0-5.12-1.25-20.4,8.66-15.82,4.14,1.91,3.46,6.78,3.46,10.57,0,4.46-.02,8.93-.02,13.39h.01Zm-23.98,27.84c-.02-.16-.04-.32-.06-.48h-26.59c-.01.11-.03.21-.04.32,4.43.77,9.08.48,13.57.49,4.4,0,8.74.14,13.12-.33Zm-13.76,9.39c-1.24-.98-5.57-.99-6.73,0h6.73Z"/>
    <path d="m.29,178.54c0-3.89-.01-7.79,0-11.68,0-3.28-.68-7.55,1.57-10.27,1.75-2.12,4.86-2.66,7.3-1.47,3.15,1.52,3.36,4.63,3.46,7.76.25,8.36.04,16.77,0,25.14-.03,6.5-.48,14.45,7.19,16.86,3.13.99,6.87.5,10.1.49,4.31-.01,8.62-.04,12.92-.06,5.51-.03,15.46-1.68,15.74,6.39.28,8.14-9.28,6.56-14.63,6.57-7.93.01-16.34.89-24.2-.21-7.97-1.11-14.4-6.05-17.53-13.46-3.33-7.9-1.94-17.66-1.94-26.04Zm22.93,38.25h25.03c0-.17,0-.33,0-.5-8.34-.03-16.69-.31-25.03.5Zm-3.78.17c.05-.21.11-.41.16-.62-1.74-.43-3.48-.86-5.21-1.3-.05.2-.1.4-.15.61,1.74.44,3.47.87,5.21,1.31Z"/>
  </g>
  <g id="cube">
    <path class="cls-2" d="m182.07,84.83s0-.03,0-.04v-2.81c0-3.85-1.01-7.64-2.93-10.98-1.92-3.33-4.69-6.12-8.01-8.05l-52.6-30.6c-6.83-3.97-15.31-3.97-22.14,0l-52.6,30.6c-3.32,1.93-6.1,4.72-8.01,8.05-1.92,3.33-2.93,7.13-2.93,10.98v2.81s0,.03,0,.04v58.68h0c.01,3.82,1.03,7.58,2.93,10.89,1.9,3.31,4.65,6.08,7.94,8.01h0s.06.04.06.04c0,0,0,0,0,0l52.6,30.6c3.41,1.99,7.24,2.98,11.07,2.98s7.66-.99,11.07-2.98l52.6-30.6s0,0,0,0l.06-.04h0c3.29-1.93,6.04-4.7,7.94-8.01,1.9-3.31,2.92-7.07,2.93-10.89h0v-58.68Zm-82.21-46.51c2.34-1.36,4.97-2.04,7.6-2.04s5.25.68,7.6,2.04l52.44,30.51h0c1.38.8,1.53,2.12,1.53,2.65s-.15,1.84-1.51,2.64l-39.57,23.02-12.9,7.51c-4.67,2.71-10.48,2.71-15.15,0l-44.06-25.64-8.39-4.88h0c-1.38-.8-1.53-2.12-1.53-2.65s.15-1.85,1.53-2.65h0s52.44-30.51,52.44-30.51Zm-60.11,46.48c.01-2.13,1.45-3.19,2.07-3.54.62-.36,2.27-1.07,4.13.01l4.68,2.72,45.76,26.62s.01,0,.02,0l5.55,3.23c1.26.74,2.05,2.1,2.05,3.56v64.92c0,2.15-1.45,3.22-2.07,3.57-.62.36-2.27,1.07-4.13-.01l-50.55-29.41c-4.63-2.7-7.5-7.7-7.5-13.05v-58.63Zm127.91,71.68l-50.55,29.41c-1.86,1.08-3.51.37-4.13.01-.62-.36-2.07-1.42-2.07-3.57v-64.92c0-1.46.79-2.83,2.05-3.56l5.55-3.23s.01,0,.02-.01l12.41-7.22,38.03-22.12c1.86-1.08,3.51-.37,4.13-.01.62.36,2.05,1.41,2.07,3.54v58.63c0,5.36-2.87,10.36-7.5,13.05Z"/>
  </g>
  <path class="cls-2" d="m125.75,165.93l4.98-7.63c.23-.35.53-.62.84-.77l12.43-5.83c.23-.1.41-.4.4-.66,0,0,0,0,0-.01l-.09-2.98,2.56-1.2.09,2.98c.05,1.88-1.24,4.03-2.88,4.81l-11.93,5.6-6.64,10.18c-.48.81-1.3,1.19-1.81.85-.25-.16-.39-.46-.41-.85l-.18-5.95-3.45,1.62c-1.65.77-3.03-.13-3.09-2.01l-.66-22.03c-.04-1.89,1.25-4.02,2.89-4.81l16.39-7.68.09,2.94-16.39,7.68c-.22.12-.4.41-.41.67l.66,22.03c0,.13.05.22.14.27.08.05.19.05.3,0l4.73-2.22c.71-.33,1.31.05,1.33.87,0,0,.12,4.13.12,4.13Zm-.2-9.99l3.71-16.19,3.95-1.85,4.55,12.31-3.27,1.53-.77-2.27-4.31,2.02-.6,2.91-3.25,1.53Zm4.5-7.76l2.85-1.34-1.59-5.17-1.26,6.51Zm19.88-29.97l3.89-1.82-.03-1.14c0-.19.13-.42.3-.5h0l2.08-.97c.17-.08.31.01.31.2,0,0,0,0,0,0l.03,1.14,4.36-2.05c.17-.08.31.01.31.2,0,0,0,0,0,0l.07,2.28c0,.19-.13.41-.29.49h0l-.69.32c-.07.71-.19,1.44-.35,2.17v.03c-.18.83-.42,1.66-.71,2.48-.27.74-.57,1.48-.9,2.2-.28.65-.6,1.27-.94,1.91.53.46,1.1.86,1.7,1.18.74.37,1.52.65,2.33.84.14.04.19.23.11.43h0s-1.01,2.41-1.01,2.41c-.08.21-.27.35-.42.32,0,0-.02,0-.02,0-.89-.21-1.75-.52-2.56-.91h0c-.66-.35-1.28-.77-1.85-1.25-.55.85-1.05,1.64-1.55,2.39h0c-.59.86-1.21,1.71-1.95,2.65-.13.18-.33.24-.43.14,0,0-.01-.01-.02-.02l-1.19-1.34c-.11-.11-.09-.34.04-.52,0,0,.01-.02.02-.03.72-.93,1.31-1.75,1.9-2.59.5-.75.99-1.5,1.51-2.34-.47-.52-.91-1.08-1.31-1.69-.45-.73-.82-1.56-1.09-2.46-.05-.16.04-.4.2-.53,0,0,0,0,0,0l1.89-1.5c.16-.13.33-.1.38.06,0,0,0,0,0,0,.35,1.2.9,2.23,1.64,3.04l.54-1.13c.23-.52.45-1.05.64-1.58h0c.2-.58.37-1.16.5-1.74.11-.46.19-.93.26-1.38l-7.6,3.56c-.17.08-.31-.01-.32-.2l-.07-2.3c0-.19.13-.42.3-.5h0v.03Zm12.92,23.35l-7.08-3.75-11.94,5.6c-1.65.76-3.02-.13-3.09-2.01l-.66-22.03c-.02-.91.28-1.93.82-2.83l.09-.13c.53-.84,1.23-1.5,1.98-1.86l24.43-11.46c.79-.36,1.56-.35,2.14.03l.09.06c.53.39.84,1.07.87,1.93l.66,22.02c.04,1.89-1.24,4.03-2.89,4.81l-3.44,1.61.18,5.93c.01.82-.55,1.74-1.26,2.06-.33.15-.66.15-.9-.01h.02Zm-5.81-6.93l5.28,2.82-.12-4.13c-.02-.81.53-1.74,1.24-2.07l4.73-2.22c.11-.05.21-.15.29-.28.08-.12.12-.27.12-.39l-.66-22.03c0-.11-.05-.19-.11-.25l-.03-.04c-.08-.05-.19-.06-.29-.01l-24.43,11.46c-.09.06-.18.15-.24.26l-.05.02c-.08.12-.12.26-.12.39l.66,22.05c0,.26.19.39.42.28,0,0,0,0,0,0l12.43-5.83c.32-.15.62-.16.86-.03Z"/>
  <g>
    <path class="cls-1" d="m91.31,140.94c-.03-.06-.07-.12-.1-.18-.32-2.65-1.03-5.4-2.11-8.19-1.09-2.82-2.52-5.59-4.25-8.24-1.75-2.67-3.75-5.14-5.96-7.32-2.28-2.26-4.72-4.18-7.26-5.68s-5.05-2.55-7.49-3.09c-2.36-.53-4.58-.58-6.62-.16-2.01.42-3.78,1.29-5.24,2.59-1.45,1.29-2.56,2.95-3.31,4.96-.04.01-.08.03-.12.04-1.37.52-2.22,1.79-2.38,3.58l-.02.24c-.16,1.79.37,3.88,1.51,5.89.03.06.07.12.1.18.32,2.65,1.03,5.4,2.11,8.19,1.09,2.82,2.52,5.59,4.25,8.24,1.75,2.67,3.75,5.14,5.96,7.32,2.28,2.26,4.72,4.18,7.26,5.68,2.53,1.51,5.05,2.55,7.49,3.09,2.36.53,4.58.58,6.62.16,2.01-.42,3.78-1.29,5.24-2.59,1.45-1.29,2.56-2.95,3.31-4.96.04-.01.08-.03.12-.04,1.37-.52,2.22-1.79,2.38-3.58l.02-.24c.16-1.79-.37-3.88-1.51-5.89Zm-1.79-2.49c-.83-.91-1.75-1.69-2.73-2.27l-6.39-3.8c-.08-1.39-.23-2.76-.43-4.11,2.4.95,4.73,1.69,6.95,2.19.33.72.63,1.44.91,2.16.76,1.97,1.33,3.93,1.69,5.84Zm-17.31-25.22c.7.55,1.37,1.27,2.01,2.18.86,1.22,1.64,2.72,2.32,4.47.69,1.77,1.25,3.74,1.67,5.85.02.11.04.23.07.34-2.27-.98-4.59-2.16-6.92-3.51l.85-9.32Zm-3.59-1.16c.73-.09,1.46.02,2.18.32l-.85,9.32c-2.32-1.42-4.61-2.98-6.82-4.66.04-.08.08-.15.12-.23.74-1.42,1.59-2.55,2.51-3.36.91-.8,1.87-1.27,2.86-1.38Zm-6.02,6.11c2.34,1.79,4.76,3.45,7.22,4.95l-.26,2.79-8-4.76c.3-1.07.65-2.06,1.04-2.98Zm8.63,5.79c2.46,1.43,4.92,2.67,7.33,3.71.19,1.26.33,2.55.42,3.85l-8-4.76.26-2.79Zm12.63.93c.81,1.24,1.56,2.51,2.22,3.81-2.04-.49-4.18-1.18-6.37-2.06-.04-.2-.07-.39-.11-.59-.45-2.24-1.05-4.34-1.79-6.24-.57-1.47-1.21-2.79-1.92-3.96.82.68,1.62,1.42,2.4,2.19,2.06,2.04,3.93,4.35,5.57,6.85Zm-25.54-15.2c1.9-.39,3.98-.34,6.18.15.84.19,1.68.44,2.53.75-.84.25-1.64.71-2.41,1.38-.99.87-1.9,2.07-2.69,3.58-.07.13-.14.26-.2.4-2.12-1.69-4.16-3.48-6.07-5.35.82-.41,1.71-.71,2.65-.91Zm-4.9,2.42c.38-.33.77-.64,1.19-.91,2.08,2.06,4.3,4.03,6.61,5.88-.41.98-.78,2.06-1.1,3.21l-6.39-3.8c-.98-.58-1.94-.93-2.84-1.05.65-1.3,1.5-2.42,2.53-3.33Zm-3.66,15.74c.83.91,1.75,1.69,2.73,2.27l6.39,3.8c.08,1.39.23,2.76.43,4.11-2.4-.95-4.73-1.69-6.95-2.19-.33-.72-.63-1.44-.91-2.16-.76-1.97-1.33-3.93-1.69-5.84Zm17.31,25.22c-.7-.55-1.37-1.27-2.01-2.18-.86-1.22-1.64-2.72-2.32-4.47-.69-1.77-1.25-3.74-1.67-5.85-.02-.11-.04-.23-.07-.34,2.27.98,4.59,2.16,6.92,3.51l-.85,9.32Zm3.59,1.16c-.73.09-1.46-.02-2.18-.32l.85-9.32c2.32,1.42,4.61,2.98,6.82,4.66-.04.08-.08.15-.12.23-.74,1.42-1.59,2.55-2.51,3.36-.91.8-1.87,1.27-2.86,1.38Zm6.02-6.11c-2.34-1.79-4.76-3.45-7.22-4.95l.26-2.79,8,4.76c-.3,1.07-.65,2.06-1.04,2.98Zm-8.63-5.79c-2.46-1.43-4.92-2.67-7.33-3.71-.19-1.26-.33-2.55-.42-3.85l8,4.76-.26,2.79Zm-12.63-.93c-.81-1.24-1.56-2.51-2.22-3.81,2.04.49,4.18,1.18,6.37,2.06.04.2.07.39.11.59.45,2.24,1.05,4.34,1.79,6.24.57,1.47,1.21,2.79,1.92,3.96-.82-.68-1.62-1.42-2.4-2.19-2.06-2.04-3.93-4.35-5.57-6.85Zm25.54,15.2c-1.9.39-3.98.34-6.18-.15-.84-.19-1.68-.44-2.53-.75.84-.25,1.64-.71,2.41-1.38.99-.87,1.9-2.07,2.69-3.58.07-.13.14-.26.2-.4,2.12,1.69,4.16,3.48,6.07,5.35-.82.41-1.71.71-2.65.91Zm4.9-2.42c-.38.33-.77.64-1.19.91-2.08-2.06-4.3-4.03-6.61-5.88.41-.98.78-2.06,1.1-3.21l6.39,3.8c.98.58,1.94.93,2.84,1.05-.65,1.3-1.5,2.42-2.53,3.33Zm5.53-7.96c-.13,1.41-.79,2.41-1.87,2.82s-2.44.17-3.84-.66l-33.06-19.67c-1.4-.83-2.66-2.16-3.56-3.75-.9-1.58-1.32-3.23-1.19-4.64l.02-.24c.13-1.41.79-2.41,1.87-2.82s2.44-.17,3.84.66l33.06,19.67c1.4.83,2.66,2.16,3.56,3.75s1.32,3.23,1.19,4.64l-.02.24Z"/>
    <polygon class="cls-1" points="59.7 128.68 59.67 128.66 58.91 123.38 57.36 122.46 55.76 126.33 55.73 126.31 55.16 121.15 53.25 120.01 54.51 128.08 56.34 129.16 57.86 125.69 57.9 125.71 58.67 130.55 60.48 131.63 63.01 125.82 61.11 124.69 59.7 128.68"/>
    <polygon class="cls-1" points="71.32 135.59 71.29 135.57 70.53 130.29 68.98 129.37 67.38 133.25 67.34 133.23 66.78 128.06 64.87 126.93 66.13 134.99 67.95 136.07 69.48 132.6 69.52 132.62 70.28 137.46 72.1 138.54 74.63 132.74 72.73 131.6 71.32 135.59"/>
    <polygon class="cls-1" points="82.94 142.51 82.9 142.49 82.15 137.21 80.6 136.28 79 140.16 78.96 140.14 78.4 134.98 76.49 133.84 77.75 141.9 79.57 142.99 81.1 139.51 81.14 139.53 81.9 144.37 83.72 145.45 86.25 139.65 84.35 138.51 82.94 142.51"/>
  </g>
  <g>
    <path d="m70.6,60.24h1.98s-.05-1.13-.05-1.13h-1.98s.05,1.13.05,1.13Zm0,0"/>
    <path d="m74.46,57.98h1.97s-.04-1.13-.04-1.13h-1.97s.04,1.13.04,1.13Zm0,0"/>
    <path d="m76.39,56.85h1.97s-.04-1.13-.04-1.13h-1.97s.04,1.13.04,1.13Zm0,0"/>
    <path d="m82.17,53.47l1.97.02-.04-1.14-1.97-.02.04,1.14Zm0,0"/>
    <path d="m84.1,52.35l1.97.02-.04-1.14-1.97-.02.04,1.14Zm0,0"/>
    <path d="m87.94,50.1l1.96.02-.04-1.14-1.96-.02.04,1.14Zm0,0"/>
    <path d="m89.87,48.97l1.96.02-.04-1.14-1.96-.02.04,1.14Zm0,0"/>
    <path d="m68.76,63.65h1.98s-.05-1.13-.05-1.13h-1.98s.05,1.13.05,1.13Zm0,0"/>
    <path d="m76.48,59.13h1.97s-.04-1.13-.04-1.13h-1.97s.04,1.13.04,1.13Zm0,0"/>
    <path d="m80.33,56.88h1.97s-.04-1.13-.04-1.13h-1.97s.04,1.13.04,1.13Zm0,0"/>
    <path d="m82.25,55.75h1.97s-.04-1.13-.04-1.13l-1.97-.02.04,1.14Zm0,0"/>
    <path d="m84.18,54.63l1.96.02-.04-1.14-1.97-.02.04,1.14Zm0,0"/>
    <path d="m86.1,53.5l1.96.02-.04-1.14-1.96-.02.04,1.14Zm0,0"/>
    <path d="m89.95,51.25l1.96.02-.04-1.14-1.96-.02.04,1.14Zm0,0"/>
    <path d="m91.87,50.13l1.96.02-.04-1.14-1.96-.02.04,1.14Zm0,0"/>
    <path d="m74.64,62.54h1.97s-.04-1.13-.04-1.13h-1.97s.04,1.13.04,1.13Zm0,0"/>
    <path d="m80.42,59.16h1.97s-.04-1.13-.04-1.13h-1.97s.04,1.13.04,1.13Zm0,0"/>
    <path d="m82.34,58.03h1.96s-.04-1.13-.04-1.13h-1.97s.04,1.13.04,1.13Zm0,0"/>
    <path d="m86.18,55.78h1.96s-.04-1.12-.04-1.12l-1.96-.02.04,1.14Zm0,0"/>
    <path d="m91.95,52.41l1.96.02-.04-1.14-1.96-.02.04,1.14Zm0,0"/>
    <path d="m76.65,63.69h1.97s-.04-1.13-.04-1.13h-1.97s.04,1.13.04,1.13Zm0,0"/>
    <path d="m80.5,61.44h1.97s-.04-1.13-.04-1.13h-1.97s.04,1.13.04,1.13Zm0,0"/>
    <path d="m82.42,60.31h1.96s-.04-1.13-.04-1.13h-1.96s.04,1.13.04,1.13Zm0,0"/>
    <path d="m84.35,59.18h1.96s-.04-1.12-.04-1.12h-1.96s.04,1.12.04,1.12Zm0,0"/>
    <path d="m86.27,58.06h1.96s-.04-1.12-.04-1.12h-1.96s.04,1.12.04,1.12Zm0,0"/>
    <path d="m90.11,55.81h1.96s-.04-1.12-.04-1.12l-1.96-.02.04,1.14Zm0,0"/>
    <path d="m92.02,54.69l1.96.02-.04-1.14-1.96-.02.04,1.14Zm0,0"/>
    <path d="m93.94,53.57l1.95.02-.04-1.14-1.96-.02.04,1.14Zm0,0"/>
    <path d="m95.86,52.44l1.95.02-.04-1.14-1.95-.02.04,1.14Zm0,0"/>
    <path d="m74.82,67.09h1.97s-.04-1.13-.04-1.13h-1.97s.04,1.13.04,1.13Zm0,0"/>
    <path d="m76.74,65.96h1.97s-.04-1.13-.04-1.13h-1.97s.04,1.13.04,1.13Zm0,0"/>
    <path d="m82.51,62.58h1.96s-.04-1.13-.04-1.13h-1.96s.04,1.13.04,1.13Zm0,0"/>
    <path d="m86.35,60.33h1.96s-.04-1.12-.04-1.12h-1.96s.04,1.12.04,1.12Zm0,0"/>
    <path d="m95.94,54.72l1.95.02-.04-1.14-1.95-.02.04,1.14Zm0,0"/>
    <path d="m78.75,67.11h1.96s-.04-1.13-.04-1.13h-1.96s.04,1.13.04,1.13Zm0,0"/>
    <path d="m82.59,64.86h1.96s-.04-1.13-.04-1.13h-1.96s.04,1.13.04,1.13Zm0,0"/>
    <path d="m86.43,62.61h1.96s-.04-1.12-.04-1.12h-1.96s.04,1.12.04,1.12Zm0,0"/>
    <path d="m96.01,56.99h1.95s-.04-1.12-.04-1.12h-1.95s.04,1.12.04,1.12Zm0,0"/>
    <path d="m97.93,55.87h1.95s-.04-1.12-.04-1.12l-1.95-.02.04,1.14Zm0,0"/>
    <path d="m78.84,69.38h1.96s-.04-1.13-.04-1.13h-1.96s.04,1.13.04,1.13Zm0,0"/>
    <path d="m82.68,67.13h1.96s-.04-1.13-.04-1.13h-1.96s.04,1.13.04,1.13Zm0,0"/>
    <path d="m86.51,64.88h1.96s-.04-1.12-.04-1.12h-1.96s.04,1.12.04,1.12Zm0,0"/>
    <path d="m90.35,62.63h1.95s-.04-1.12-.04-1.12h-1.96s.04,1.12.04,1.12Zm0,0"/>
    <path d="m94.18,60.38h1.95s-.04-1.12-.04-1.12h-1.95s.04,1.12.04,1.12Zm0,0"/>
    <path d="m98,58.14h1.95s-.04-1.12-.04-1.12h-1.95s.04,1.12.04,1.12Zm0,0"/>
    <path d="m101.82,55.9h1.95s-.04-1.12-.04-1.12l-1.95-.02.04,1.13Zm0,0"/>
    <path d="m82.76,69.39h1.96s-.04-1.13-.04-1.13h-1.96s.04,1.13.04,1.13Zm0,0"/>
    <path d="m90.43,64.9h1.95s-.04-1.12-.04-1.12h-1.95s.04,1.12.04,1.12Zm0,0"/>
    <path d="m92.34,63.77h1.95s-.04-1.12-.04-1.12h-1.95s.04,1.12.04,1.12Zm0,0"/>
    <path d="m96.17,61.53h1.95s-.04-1.12-.04-1.12h-1.95s.04,1.12.04,1.12Zm0,0"/>
    <path d="m98.08,60.41h1.95s-.04-1.12-.04-1.12h-1.95s.04,1.12.04,1.12Zm0,0"/>
    <path d="m99.99,59.29h1.95s-.04-1.12-.04-1.12h-1.95s.04,1.12.04,1.12Zm0,0"/>
    <path d="m101.9,58.17h1.94s-.04-1.12-.04-1.12h-1.95s.04,1.12.04,1.12Zm0,0"/>
    <path d="m103.81,57.05h1.94s-.04-1.12-.04-1.12h-1.94s.04,1.12.04,1.12Zm0,0"/>
    <path d="m67.48,80.68h1.97s-.05-1.13-.05-1.13h-1.97s.05,1.13.05,1.13Zm0,0"/>
    <path d="m71.33,78.42h1.97s-.04-1.13-.04-1.13h-1.97s.05,1.13.05,1.13Zm0,0"/>
    <path d="m75.17,76.16h1.96s-.04-1.13-.04-1.13h-1.96s.04,1.13.04,1.13Zm0,0"/>
    <path d="m79.01,73.91h1.96s-.04-1.13-.04-1.13h-1.96s.04,1.13.04,1.13Zm0,0"/>
    <path d="m88.59,68.28h1.95s-.04-1.12-.04-1.12h-1.95s.04,1.12.04,1.12Zm0,0"/>
    <path d="m94.33,64.92h1.95s-.04-1.12-.04-1.12h-1.95s.04,1.12.04,1.12Zm0,0"/>
    <path d="m96.24,63.79h1.95s-.04-1.12-.04-1.12h-1.95s.04,1.12.04,1.12Zm0,0"/>
    <path d="m100.06,61.55h1.94s-.04-1.12-.04-1.12h-1.95s.04,1.12.04,1.12Zm0,0"/>
    <path d="m113.4,53.72l1.93.02-.03-1.13-1.94-.02.03,1.13Zm0,0"/>
    <path d="m119.1,50.38l1.93.02-.03-1.13-1.93-.02.03,1.13Zm0,0"/>
    <path d="m79.1,76.17h1.96s-.04-1.13-.04-1.13h-1.96s.04,1.13.04,1.13Zm0,0"/>
    <path d="m86.76,71.67h1.95s-.04-1.12-.04-1.12h-1.95s.04,1.12.04,1.12Zm0,0"/>
    <path d="m88.67,70.55h1.95s-.04-1.12-.04-1.12h-1.95s.04,1.12.04,1.12Zm0,0"/>
    <path d="m90.59,69.42h1.95s-.04-1.12-.04-1.12h-1.95s.04,1.12.04,1.12Zm0,0"/>
    <path d="m96.32,66.06h1.95s-.04-1.12-.04-1.12h-1.95s.04,1.12.04,1.12Zm0,0"/>
    <path d="m98.23,64.94h1.95s-.04-1.12-.04-1.12h-1.95s.04,1.12.04,1.12Zm0,0"/>
    <path d="m102.04,62.69h1.94s-.04-1.12-.04-1.12h-1.94s.04,1.12.04,1.12Zm0,0"/>
    <path d="m111.57,57.1h1.94s-.03-1.12-.03-1.12h-1.94s.03,1.12.03,1.12Zm0,0"/>
    <path d="m117.27,53.75l1.93.02-.03-1.13-1.93-.02.03,1.13Zm0,0"/>
    <path d="m122.96,50.41l1.93.02-.03-1.13-1.93-.02.03,1.13Zm0,0"/>
    <path d="m73.43,81.81h1.96s-.04-1.13-.04-1.13h-1.96s.04,1.13.04,1.13Zm0,0"/>
    <path d="m77.27,79.56h1.96s-.04-1.13-.04-1.13h-1.96s.04,1.13.04,1.13Zm0,0"/>
    <path d="m83.02,76.18h1.96s-.04-1.12-.04-1.12h-1.96s.04,1.12.04,1.12Zm0,0"/>
    <path d="m84.93,75.05h1.95s-.04-1.12-.04-1.12h-1.95s.04,1.12.04,1.12Zm0,0"/>
    <path d="m86.84,73.93h1.95s-.04-1.12-.04-1.12h-1.95s.04,1.12.04,1.12Zm0,0"/>
    <path d="m90.67,71.68h1.95s-.04-1.12-.04-1.12h-1.95s.04,1.12.04,1.12Zm0,0"/>
    <path d="m96.4,68.32h1.95s-.04-1.12-.04-1.12h-1.95s.04,1.12.04,1.12Zm0,0"/>
    <path d="m104.02,63.84h1.94s-.04-1.12-.04-1.12h-1.94s.04,1.12.04,1.12Zm0,0"/>
    <path d="m111.63,59.36h1.93s-.03-1.12-.03-1.12h-1.93s.03,1.12.03,1.12Zm0,0"/>
    <path d="m113.53,58.25h1.93s-.03-1.12-.03-1.12h-1.93s.03,1.12.03,1.12Zm0,0"/>
    <path d="m117.33,56.02h1.93s-.03-1.12-.03-1.12h-1.93s.03,1.12.03,1.12Zm0,0"/>
    <path d="m121.13,53.79l1.93.02-.03-1.13-1.93-.02.03,1.13Zm0,0"/>
    <path d="m123.02,52.67l1.93.02-.03-1.13-1.93-.02.03,1.13Zm0,0"/>
    <path d="m124.92,51.56l1.92.02-.03-1.13-1.92-.02.03,1.13Zm0,0"/>
    <path d="m75.44,82.94h1.96s-.04-1.13-.04-1.13h-1.96s.04,1.13.04,1.13Zm0,0"/>
    <path d="m77.35,81.81h1.96s-.04-1.13-.04-1.13h-1.96s.04,1.13.04,1.13Zm0,0"/>
    <path d="m83.1,78.44h1.95s-.04-1.12-.04-1.12h-1.96s.04,1.12.04,1.12Zm0,0"/>
    <path d="m94.57,71.7h1.95s-.04-1.12-.04-1.12h-1.95s.04,1.12.04,1.12Zm0,0"/>
    <path d="m102.19,67.21h1.94s-.04-1.12-.04-1.12h-1.94s.04,1.12.04,1.12Zm0,0"/>
    <path d="m106,64.97h1.94s-.04-1.12-.04-1.12h-1.94s.04,1.12.04,1.12Zm0,0"/>
    <path d="m107.9,63.86h1.94s-.03-1.12-.03-1.12h-1.94s.04,1.12.04,1.12Zm0,0"/>
    <path d="m111.7,61.62h1.93s-.03-1.12-.03-1.12h-1.93s.03,1.12.03,1.12Zm0,0"/>
    <path d="m124.98,53.82l1.92.02-.03-1.13-1.92-.02.03,1.13Zm0,0"/>
    <path d="m81.27,81.82h1.96s-.04-1.13-.04-1.13h-1.96s.04,1.13.04,1.13Zm0,0"/>
    <path d="m87.01,78.44h1.95s-.04-1.12-.04-1.12h-1.95s.04,1.12.04,1.12Zm0,0"/>
    <path d="m88.92,77.32h1.95s-.04-1.12-.04-1.12h-1.95s.04,1.12.04,1.12Zm0,0"/>
    <path d="m90.83,76.2h1.95s-.04-1.12-.04-1.12h-1.95s.04,1.12.04,1.12Zm0,0"/>
    <path d="m98.46,71.71h1.94s-.04-1.12-.04-1.12h-1.94s.04,1.12.04,1.12Zm0,0"/>
    <path d="m106.07,67.23h1.94s-.04-1.12-.04-1.12h-1.94s.04,1.12.04,1.12Zm0,0"/>
    <path d="m117.46,60.53h1.93s-.03-1.11-.03-1.11h-1.93s.03,1.11.03,1.11Zm0,0"/>
    <path d="m119.36,59.41h1.93s-.03-1.11-.03-1.11h-1.93s.03,1.11.03,1.11Zm0,0"/>
    <path d="m123.15,57.19h1.92s-.03-1.11-.03-1.11h-1.92s.03,1.11.03,1.11Zm0,0"/>
    <path d="m126.93,54.96h1.92s-.03-1.11-.03-1.11l-1.92-.02.03,1.13Zm0,0"/>
    <path d="m128.82,53.85l1.92.02-.03-1.13-1.92-.02.03,1.13Zm0,0"/>
    <path d="m77.53,86.32h1.96s-.04-1.13-.04-1.13h-1.96s.04,1.13.04,1.13Zm0,0"/>
    <path d="m79.44,85.19h1.96s-.04-1.13-.04-1.13h-1.96s.04,1.13.04,1.13Zm0,0"/>
    <path d="m81.35,84.07h1.95s-.04-1.13-.04-1.13h-1.95s.04,1.13.04,1.13Zm0,0"/>
    <path d="m85.18,81.82h1.95s-.04-1.12-.04-1.12h-1.95s.04,1.12.04,1.12Zm0,0"/>
    <path d="m87.09,80.69h1.95s-.04-1.12-.04-1.12h-1.95s.04,1.12.04,1.12Zm0,0"/>
    <path d="m94.72,76.2h1.94s-.04-1.12-.04-1.12h-1.94s.04,1.12.04,1.12Zm0,0"/>
    <path d="m96.63,75.08h1.94s-.04-1.12-.04-1.12h-1.94s.04,1.12.04,1.12Zm0,0"/>
    <path d="m102.34,71.72h1.94s-.04-1.12-.04-1.12h-1.94s.04,1.12.04,1.12Zm0,0"/>
    <path d="m106.14,69.48h1.94s-.03-1.12-.03-1.12h-1.94s.04,1.12.04,1.12Zm0,0"/>
    <path d="m108.04,68.37h1.93s-.03-1.12-.03-1.12h-1.93s.03,1.12.03,1.12Zm0,0"/>
    <path d="m111.84,66.13h1.93s-.03-1.12-.03-1.12h-1.93s.03,1.12.03,1.12Zm0,0"/>
    <path d="m115.63,63.9h1.93s-.03-1.12-.03-1.12h-1.93s.03,1.12.03,1.12Zm0,0"/>
    <path d="m117.53,62.78h1.93s-.03-1.11-.03-1.11h-1.93s.03,1.11.03,1.11Zm0,0"/>
    <path d="m119.42,61.67h1.92s-.03-1.11-.03-1.11h-1.93s.03,1.11.03,1.11Zm0,0"/>
    <path d="m125.1,58.33h1.92s-.03-1.11-.03-1.11h-1.92s.03,1.11.03,1.11Zm0,0"/>
    <path d="m130.77,54.99h1.92s-.03-1.11-.03-1.11l-1.92-.02.03,1.13Zm0,0"/>
    <path d="m79.53,87.44h1.95s-.04-1.13-.04-1.13h-1.95s.04,1.13.04,1.13Zm0,0"/>
    <path d="m81.44,86.32h1.95s-.04-1.13-.04-1.13h-1.95s.04,1.13.04,1.13Zm0,0"/>
    <path d="m87.17,82.94h1.95s-.04-1.12-.04-1.12h-1.95s.04,1.12.04,1.12Zm0,0"/>
    <path d="m89.08,81.82h1.95s-.04-1.12-.04-1.12h-1.95s.04,1.12.04,1.12Zm0,0"/>
    <path d="m90.99,80.7h1.95s-.04-1.12-.04-1.12h-1.95s.04,1.12.04,1.12Zm0,0"/>
    <path d="m94.8,78.45h1.94s-.04-1.12-.04-1.12h-1.94s.04,1.12.04,1.12Zm0,0"/>
    <path d="m96.7,77.33h1.94s-.04-1.12-.04-1.12h-1.94s.04,1.12.04,1.12Zm0,0"/>
    <path d="m98.61,76.21h1.94s-.04-1.12-.04-1.12h-1.94s.04,1.12.04,1.12Zm0,0"/>
    <path d="m106.21,71.73h1.93s-.03-1.12-.03-1.12h-1.93s.04,1.12.04,1.12Zm0,0"/>
    <path d="m108.11,70.62h1.93s-.03-1.12-.03-1.12h-1.93s.03,1.12.03,1.12Zm0,0"/>
    <path d="m110.01,69.5h1.93s-.03-1.12-.03-1.12h-1.93s.03,1.12.03,1.12Zm0,0"/>
    <path d="m113.8,67.26h1.93s-.03-1.12-.03-1.12h-1.93s.03,1.12.03,1.12Zm0,0"/>
    <path d="m119.49,63.92h1.92s-.03-1.11-.03-1.11h-1.92s.03,1.11.03,1.11Zm0,0"/>
    <path d="m123.27,61.69h1.92s-.03-1.11-.03-1.11h-1.92s.03,1.11.03,1.11Zm0,0"/>
    <path d="m125.16,60.58h1.92s-.03-1.11-.03-1.11h-1.92s.03,1.11.03,1.11Zm0,0"/>
    <path d="m127.05,59.46h1.92s-.03-1.11-.03-1.11h-1.92s.03,1.11.03,1.11Zm0,0"/>
    <path d="m130.83,57.24h1.92s-.03-1.11-.03-1.11h-1.92s.03,1.11.03,1.11Zm0,0"/>
    <path d="m132.71,56.13h1.91s-.03-1.11-.03-1.11h-1.91s.03,1.11.03,1.11Zm0,0"/>
    <path d="m89.16,84.07h1.95s-.04-1.12-.04-1.12h-1.95s.04,1.12.04,1.12Zm0,0"/>
    <path d="m94.87,80.7h1.94s-.04-1.12-.04-1.12h-1.94s.04,1.12.04,1.12Zm0,0"/>
    <path d="m98.68,78.46h1.94s-.04-1.12-.04-1.12h-1.94s.04,1.12.04,1.12Zm0,0"/>
    <path d="m102.48,76.22h1.94s-.04-1.12-.04-1.12h-1.94s.04,1.12.04,1.12Zm0,0"/>
    <path d="m106.28,73.98h1.93s-.03-1.12-.03-1.12h-1.93s.04,1.12.04,1.12Zm0,0"/>
    <path d="m108.18,72.86h1.93s-.03-1.12-.03-1.12h-1.93s.03,1.12.03,1.12Zm0,0"/>
    <path d="m111.97,70.63h1.93s-.03-1.12-.03-1.12h-1.93s.03,1.12.03,1.12Zm0,0"/>
    <path d="m113.87,69.51h1.93s-.03-1.12-.03-1.12h-1.93s.03,1.12.03,1.12Zm0,0"/>
    <path d="m117.66,67.28h1.92s-.03-1.11-.03-1.11h-1.92s.03,1.11.03,1.11Zm0,0"/>
    <path d="m121.44,65.05h1.92s-.03-1.11-.03-1.11h-1.92s.03,1.11.03,1.11Zm0,0"/>
    <path d="m123.33,63.94h1.92s-.03-1.11-.03-1.11h-1.92s.03,1.11.03,1.11Zm0,0"/>
    <path d="m129,60.6h1.92s-.03-1.11-.03-1.11h-1.92s.03,1.11.03,1.11Zm0,0"/>
    <path d="m132.77,58.38h1.91s-.03-1.11-.03-1.11h-1.91s.03,1.11.03,1.11Zm0,0"/>
    <path d="m91.14,85.19h1.94s-.04-1.12-.04-1.12h-1.94s.04,1.12.04,1.12Zm0,0"/>
    <path d="m94.95,82.95h1.94s-.04-1.12-.04-1.12h-1.94s.04,1.12.04,1.12Zm0,0"/>
    <path d="m98.76,80.7h1.94s-.04-1.12-.04-1.12h-1.94s.04,1.12.04,1.12Zm0,0"/>
    <path d="m100.66,79.58h1.94s-.04-1.12-.04-1.12h-1.94s.04,1.12.04,1.12Zm0,0"/>
    <path d="m106.35,76.23h1.93s-.03-1.12-.03-1.12h-1.93s.04,1.12.04,1.12Zm0,0"/>
    <path d="m110.15,73.99h1.93s-.03-1.12-.03-1.12h-1.93s.03,1.12.03,1.12Zm0,0"/>
    <path d="m112.04,72.88h1.93s-.03-1.12-.03-1.12h-1.93s.03,1.12.03,1.12Zm0,0"/>
    <path d="m115.83,70.64h1.92s-.03-1.12-.03-1.12h-1.93s.03,1.12.03,1.12Zm0,0"/>
    <path d="m123.39,66.19h1.92s-.03-1.11-.03-1.11h-1.92s.03,1.11.03,1.11Zm0,0"/>
    <path d="m125.28,65.07h1.92s-.03-1.11-.03-1.11h-1.92s.03,1.11.03,1.11Zm0,0"/>
    <path d="m127.17,63.96h1.92s-.03-1.11-.03-1.11h-1.92s.03,1.11.03,1.11Zm0,0"/>
    <path d="m130.94,61.74h1.91s-.03-1.11-.03-1.11h-1.91s.03,1.11.03,1.11Zm0,0"/>
    <path d="m134.71,59.52h1.91s-.03-1.11-.03-1.11h-1.91s.03,1.11.03,1.11Zm0,0"/>
    <path d="m136.59,58.41h1.91s-.03-1.11-.03-1.11h-1.91s.03,1.11.03,1.11Zm0,0"/>
    <path d="m87.41,89.68h1.95s-.04-1.12-.04-1.12h-1.95s.04,1.12.04,1.12Zm0,0"/>
    <path d="m89.32,88.56h1.94s-.04-1.12-.04-1.12h-1.94s.04,1.12.04,1.12Zm0,0"/>
    <path d="m91.22,87.43h1.94s-.04-1.12-.04-1.12h-1.94s.04,1.12.04,1.12Zm0,0"/>
    <path d="m93.13,86.31h1.94s-.04-1.12-.04-1.12h-1.94s.04,1.12.04,1.12Zm0,0"/>
    <path d="m95.03,85.19h1.94s-.04-1.12-.04-1.12h-1.94s.04,1.12.04,1.12Zm0,0"/>
    <path d="m98.83,82.95h1.94s-.04-1.12-.04-1.12h-1.94s.04,1.12.04,1.12Zm0,0"/>
    <path d="m100.73,81.83h1.94s-.04-1.12-.04-1.12h-1.94s.04,1.12.04,1.12Zm0,0"/>
    <path d="m102.63,80.71h1.93s-.04-1.12-.04-1.12h-1.93s.04,1.12.04,1.12Zm0,0"/>
    <path d="m108.32,77.35h1.93s-.03-1.12-.03-1.12h-1.93s.03,1.12.03,1.12Zm0,0"/>
    <path d="m112.11,75.12h1.93s-.03-1.12-.03-1.12h-1.93s.03,1.12.03,1.12Zm0,0"/>
    <path d="m114,74h1.92s-.03-1.12-.03-1.12h-1.93s.03,1.12.03,1.12Zm0,0"/>
    <path d="m117.79,71.77h1.92s-.03-1.11-.03-1.11h-1.92s.03,1.11.03,1.11Zm0,0"/>
    <path d="m121.57,69.54h1.92s-.03-1.11-.03-1.11h-1.92s.03,1.11.03,1.11Zm0,0"/>
    <path d="m123.45,68.43h1.92s-.03-1.11-.03-1.11h-1.92s.03,1.11.03,1.11Zm0,0"/>
    <path d="m125.34,67.32h1.92s-.03-1.11-.03-1.11h-1.92s.03,1.11.03,1.11Zm0,0"/>
    <path d="m127.23,66.2h1.91s-.03-1.11-.03-1.11h-1.92s.03,1.11.03,1.11Zm0,0"/>
    <path d="m132.88,62.87h1.91s-.03-1.11-.03-1.11h-1.91s.03,1.11.03,1.11Zm0,0"/>
    <path d="m134.77,61.76h1.91s-.03-1.11-.03-1.11h-1.91s.03,1.11.03,1.11Zm0,0"/>
    <path d="m138.53,59.54h1.91s-.03-1.11-.03-1.11h-1.91s.03,1.11.03,1.11Zm0,0"/>
    <path d="m87.5,91.92h1.94s-.04-1.12-.04-1.12h-1.94s.04,1.12.04,1.12Zm0,0"/>
    <path d="m93.2,88.55h1.94s-.04-1.12-.04-1.12h-1.94s.04,1.12.04,1.12Zm0,0"/>
    <path d="m95.11,87.43h1.94s-.04-1.12-.04-1.12h-1.94s.04,1.12.04,1.12Zm0,0"/>
    <path d="m98.91,85.19h1.94s-.04-1.12-.04-1.12h-1.94s.04,1.12.04,1.12Zm0,0"/>
    <path d="m106.49,80.71h1.93s-.03-1.12-.03-1.12h-1.93s.04,1.12.04,1.12Zm0,0"/>
    <path d="m110.28,78.48h1.93s-.03-1.12-.03-1.12h-1.93s.03,1.12.03,1.12Zm0,0"/>
    <path d="m112.18,77.36h1.93s-.03-1.12-.03-1.12h-1.93s.03,1.12.03,1.12Zm0,0"/>
    <path d="m119.74,72.9h1.92s-.03-1.11-.03-1.11h-1.92s.03,1.11.03,1.11Zm0,0"/>
    <path d="m121.63,71.78h1.92s-.03-1.11-.03-1.11h-1.92s.03,1.11.03,1.11Zm0,0"/>
    <path d="m125.4,69.56h1.92s-.03-1.11-.03-1.11h-1.92s.03,1.11.03,1.11Zm0,0"/>
    <path d="m129.17,67.33h1.91s-.03-1.11-.03-1.11h-1.91s.03,1.11.03,1.11Zm0,0"/>
    <path d="m131.06,66.22h1.91s-.03-1.11-.03-1.11h-1.91s.03,1.11.03,1.11Zm0,0"/>
    <path d="m138.58,61.78h1.91s-.03-1.11-.03-1.11h-1.91s.03,1.11.03,1.11Zm0,0"/>
    <path d="m140.46,60.67h1.9s-.03-1.11-.03-1.11h-1.9s.03,1.11.03,1.11Zm0,0"/>
    <path d="m91.38,91.91h1.94s-.04-1.12-.04-1.12h-1.94s.04,1.12.04,1.12Zm0,0"/>
    <path d="m104.67,84.07h1.93s-.04-1.12-.04-1.12h-1.93s.04,1.12.04,1.12Zm0,0"/>
    <path d="m108.46,81.83h1.93s-.03-1.12-.03-1.12h-1.93s.03,1.12.03,1.12Zm0,0"/>
    <path d="m112.24,79.6h1.92s-.03-1.12-.03-1.12h-1.92s.03,1.12.03,1.12Zm0,0"/>
    <path d="m117.91,76.25h1.92s-.03-1.11-.03-1.11h-1.92s.03,1.11.03,1.11Zm0,0"/>
    <path d="m121.69,74.02h1.92s-.03-1.11-.03-1.11h-1.92s.03,1.11.03,1.11Zm0,0"/>
    <path d="m123.58,72.91h1.92s-.03-1.11-.03-1.11h-1.92s.03,1.11.03,1.11Zm0,0"/>
    <path d="m125.46,71.8h1.91s-.03-1.11-.03-1.11h-1.91s.03,1.11.03,1.11Zm0,0"/>
    <path d="m127.35,70.68h1.91s-.03-1.11-.03-1.11h-1.91s.03,1.11.03,1.11Zm0,0"/>
    <path d="m129.23,69.57h1.91s-.03-1.11-.03-1.11h-1.91s.03,1.11.03,1.11Zm0,0"/>
    <path d="m131.11,68.46h1.91s-.03-1.11-.03-1.11h-1.91s.03,1.11.03,1.11Zm0,0"/>
    <path d="m134.88,66.24h1.91s-.03-1.11-.03-1.11h-1.91s.03,1.11.03,1.11Zm0,0"/>
    <path d="m136.76,65.13h1.91s-.03-1.11-.03-1.11h-1.91s.03,1.11.03,1.11Zm0,0"/>
    <path d="m140.51,62.91h1.9s-.03-1.11-.03-1.11h-1.9s.03,1.11.03,1.11Zm0,0"/>
    <path d="m91.46,94.15h1.94s-.04-1.12-.04-1.12h-1.94s.04,1.12.04,1.12Zm0,0"/>
    <path d="m97.16,90.78h1.93s-.04-1.12-.04-1.12h-1.94s.04,1.12.04,1.12Zm0,0"/>
    <path d="m99.06,89.66h1.93s-.04-1.12-.04-1.12h-1.93s.04,1.12.04,1.12Zm0,0"/>
    <path d="m100.95,88.54h1.93s-.04-1.12-.04-1.12h-1.93s.04,1.12.04,1.12Zm0,0"/>
    <path d="m102.85,87.42h1.93s-.04-1.12-.04-1.12h-1.93s.04,1.12.04,1.12Zm0,0"/>
    <path d="m104.74,86.3h1.93s-.04-1.12-.04-1.12h-1.93s.04,1.12.04,1.12Zm0,0"/>
    <path d="m106.64,85.19h1.93s-.03-1.12-.03-1.12h-1.93s.04,1.12.04,1.12Zm0,0"/>
    <path d="m108.53,84.07h1.93s-.03-1.12-.03-1.12h-1.93s.03,1.12.03,1.12Zm0,0"/>
    <path d="m110.42,82.95h1.92s-.03-1.12-.03-1.12h-1.93s.03,1.12.03,1.12Zm0,0"/>
    <path d="m112.31,81.83h1.92s-.03-1.12-.03-1.12h-1.92s.03,1.12.03,1.12Zm0,0"/>
    <path d="m121.75,76.26h1.92s-.03-1.11-.03-1.11h-1.92s.03,1.11.03,1.11Zm0,0"/>
    <path d="m129.29,71.81h1.91s-.03-1.11-.03-1.11h-1.91s.03,1.11.03,1.11Zm0,0"/>
    <path d="m131.17,70.7h1.91s-.03-1.11-.03-1.11h-1.91s.03,1.11.03,1.11Zm0,0"/>
    <path d="m133.05,69.59h1.91s-.03-1.11-.03-1.11h-1.91s.03,1.11.03,1.11Zm0,0"/>
    <path d="m134.93,68.48h1.91s-.03-1.11-.03-1.11h-1.91s.03,1.11.03,1.11Zm0,0"/>
    <path d="m136.81,67.37h1.9s-.03-1.11-.03-1.11h-1.91s.03,1.11.03,1.11Zm0,0"/>
    <path d="m108.6,86.3h1.92s-.03-1.12-.03-1.12h-1.93s.03,1.12.03,1.12Zm0,0"/>
    <path d="m112.38,84.07h1.92s-.03-1.12-.03-1.12h-1.92s.03,1.12.03,1.12Zm0,0"/>
    <path d="m114.27,82.95h1.92s-.03-1.12-.03-1.12h-1.92s.03,1.12.03,1.12Zm0,0"/>
    <path d="m118.04,80.72h1.92s-.03-1.11-.03-1.11h-1.92s.03,1.11.03,1.11Zm0,0"/>
    <path d="m121.81,78.49h1.91s-.03-1.11-.03-1.11h-1.92s.03,1.11.03,1.11Zm0,0"/>
    <path d="m123.7,77.38h1.91s-.03-1.11-.03-1.11h-1.91s.03,1.11.03,1.11Zm0,0"/>
    <path d="m125.58,76.27h1.91s-.03-1.11-.03-1.11h-1.91s.03,1.11.03,1.11Zm0,0"/>
    <path d="m127.46,75.15h1.91s-.03-1.11-.03-1.11h-1.91s.03,1.11.03,1.11Zm0,0"/>
    <path d="m129.35,74.04h1.91s-.03-1.11-.03-1.11h-1.91s.03,1.11.03,1.11Zm0,0"/>
    <path d="m131.23,72.93h1.91s-.03-1.11-.03-1.11h-1.91s.03,1.11.03,1.11Zm0,0"/>
    <path d="m138.74,68.49h1.9s-.03-1.11-.03-1.11h-1.9s.03,1.11.03,1.11Zm0,0"/>
    <path d="m142.49,66.28h1.9s-.02-1.11-.02-1.11h-1.9s.03,1.11.03,1.11Zm0,0"/>
    <path d="m144.37,65.17h1.9s-.02-1.11-.02-1.11h-1.9s.02,1.11.02,1.11Zm0,0"/>
    <path d="m146.24,64.06h1.9s-.02-1.11-.02-1.11h-1.9s.02,1.11.02,1.11Zm0,0"/>
    <path d="m114.33,85.18h1.92s-.03-1.12-.03-1.12h-1.92s.03,1.12.03,1.12Zm0,0"/>
    <path d="m116.22,84.07h1.92s-.03-1.11-.03-1.11h-1.92s.03,1.11.03,1.11Zm0,0"/>
    <path d="m121.88,80.72h1.91s-.03-1.11-.03-1.11h-1.91s.03,1.11.03,1.11Zm0,0"/>
    <path d="m123.76,79.61h1.91s-.03-1.11-.03-1.11h-1.91s.03,1.11.03,1.11Zm0,0"/>
    <path d="m125.64,78.5h1.91s-.03-1.11-.03-1.11h-1.91s.03,1.11.03,1.11Zm0,0"/>
    <path d="m129.4,76.27h1.91s-.03-1.11-.03-1.11h-1.91s.03,1.11.03,1.11Zm0,0"/>
    <path d="m131.28,75.16h1.91s-.03-1.11-.03-1.11h-1.91s.03,1.11.03,1.11Zm0,0"/>
    <path d="m133.16,74.05h1.91s-.03-1.11-.03-1.11h-1.91s.03,1.11.03,1.11Zm0,0"/>
    <path d="m136.92,71.83h1.9s-.03-1.11-.03-1.11h-1.9s.03,1.11.03,1.11Zm0,0"/>
    <path d="m140.67,69.62h1.9s-.03-1.11-.03-1.11h-1.9s.03,1.11.03,1.11Zm0,0"/>
    <path d="m142.54,68.51h1.9s-.02-1.11-.02-1.11h-1.9s.03,1.11.03,1.11Zm0,0"/>
    <path d="m146.29,66.29h1.9s-.02-1.11-.02-1.11h-1.9s.02,1.11.02,1.11Zm0,0"/>
    <path d="m148.16,65.19h1.89s-.02-1.11-.02-1.11h-1.89s.02,1.11.02,1.11Zm0,0"/>
    <path d="m114.4,87.41h1.92s-.03-1.12-.03-1.12h-1.92s.03,1.12.03,1.12Zm0,0"/>
    <path d="m118.17,85.18h1.92s-.03-1.11-.03-1.11h-1.92s.03,1.11.03,1.11Zm0,0"/>
    <path d="m120.05,84.07h1.91s-.03-1.11-.03-1.11h-1.91s.03,1.11.03,1.11Zm0,0"/>
    <path d="m121.94,82.95h1.91s-.03-1.11-.03-1.11h-1.91s.03,1.11.03,1.11Zm0,0"/>
    <path d="m123.82,81.84h1.91s-.03-1.11-.03-1.11h-1.91s.03,1.11.03,1.11Zm0,0"/>
    <path d="m127.58,79.62h1.91s-.03-1.11-.03-1.11h-1.91s.03,1.11.03,1.11Zm0,0"/>
    <path d="m129.46,78.5h1.91s-.03-1.11-.03-1.11h-1.91s.03,1.11.03,1.11Zm0,0"/>
    <path d="m131.34,77.39h1.91s-.03-1.11-.03-1.11h-1.91s.03,1.11.03,1.11Zm0,0"/>
    <path d="m135.1,75.17h1.9s-.03-1.11-.03-1.11h-1.9s.03,1.11.03,1.11Zm0,0"/>
    <path d="m142.59,70.74h1.9s-.02-1.11-.02-1.11h-1.9s.03,1.11.03,1.11Zm0,0"/>
    <path d="m144.47,69.63h1.9s-.02-1.11-.02-1.11h-1.9s.02,1.11.02,1.11Zm0,0"/>
    <path d="m148.21,67.42h1.89s-.02-1.11-.02-1.11h-1.89s.02,1.11.02,1.11Zm0,0"/>
    <path d="m114.47,89.64h1.92s-.03-1.12-.03-1.12h-1.92s.03,1.12.03,1.12Zm0,0"/>
    <path d="m118.23,87.41h1.91s-.03-1.11-.03-1.11h-1.92s.03,1.11.03,1.11Zm0,0"/>
    <path d="m120.12,86.29h1.91s-.03-1.11-.03-1.11h-1.91s.03,1.11.03,1.11Zm0,0"/>
    <path d="m122,85.18h1.91s-.03-1.11-.03-1.11h-1.91s.03,1.11.03,1.11Zm0,0"/>
    <path d="m125.76,82.95h1.91s-.03-1.11-.03-1.11h-1.91s.03,1.11.03,1.11Zm0,0"/>
    <path d="m127.64,81.84h1.91s-.03-1.11-.03-1.11h-1.91s.03,1.11.03,1.11Zm0,0"/>
    <path d="m133.27,78.51h1.9s-.03-1.11-.03-1.11h-1.9s.03,1.11.03,1.11Zm0,0"/>
    <path d="m137.03,76.29h1.9s-.03-1.11-.03-1.11h-1.9s.03,1.11.03,1.11Zm0,0"/>
    <path d="m138.9,75.18h1.9s-.03-1.11-.03-1.11h-1.9s.03,1.11.03,1.11Zm0,0"/>
    <path d="m140.77,74.07h1.9s-.03-1.11-.03-1.11h-1.9s.03,1.11.03,1.11Zm0,0"/>
    <path d="m142.65,72.97h1.9s-.02-1.11-.02-1.11h-1.9s.03,1.11.03,1.11Zm0,0"/>
    <path d="m144.52,71.86h1.89s-.02-1.11-.02-1.11h-1.9s.02,1.11.02,1.11Zm0,0"/>
    <path d="m150.13,68.54h1.89s-.02-1.11-.02-1.11h-1.89s.02,1.11.02,1.11Zm0,0"/>
    <path d="m122.06,87.4h1.91s-.03-1.11-.03-1.11h-1.91s.03,1.11.03,1.11Zm0,0"/>
    <path d="m123.94,86.29h1.91s-.03-1.11-.03-1.11h-1.91s.03,1.11.03,1.11Zm0,0"/>
    <path d="m125.82,85.18h1.91s-.03-1.11-.03-1.11h-1.91s.03,1.11.03,1.11Zm0,0"/>
    <path d="m127.7,84.07h1.91s-.03-1.11-.03-1.11h-1.91s.03,1.11.03,1.11Zm0,0"/>
    <path d="m129.58,82.96h1.91s-.03-1.11-.03-1.11h-1.91s.03,1.11.03,1.11Zm0,0"/>
    <path d="m138.95,77.41h1.9s-.03-1.11-.03-1.11h-1.9s.03,1.11.03,1.11Zm0,0"/>
    <path d="m144.57,74.08h1.89s-.02-1.11-.02-1.11h-1.89s.02,1.11.02,1.11Zm0,0"/>
    <path d="m146.44,72.98h1.89s-.02-1.11-.02-1.11h-1.89s.02,1.11.02,1.11Zm0,0"/>
    <path d="m150.17,70.77h1.89s-.02-1.11-.02-1.11h-1.89s.02,1.11.02,1.11Zm0,0"/>
    <path d="m118.36,91.85h1.91s-.03-1.11-.03-1.11h-1.91s.03,1.11.03,1.11Zm0,0"/>
    <path d="m125.88,87.4h1.91s-.03-1.11-.03-1.11h-1.91s.03,1.11.03,1.11Zm0,0"/>
    <path d="m127.76,86.29h1.91s-.03-1.11-.03-1.11h-1.91s.03,1.11.03,1.11Zm0,0"/>
    <path d="m135.26,81.85h1.9s-.03-1.11-.03-1.11h-1.9s.03,1.11.03,1.11Zm0,0"/>
    <path d="m139,79.63h1.9s-.03-1.11-.03-1.11h-1.9s.03,1.11.03,1.11Zm0,0"/>
    <path d="m146.48,75.2h1.89s-.02-1.11-.02-1.11h-1.89s.02,1.11.02,1.11Zm0,0"/>
    <path d="m148.35,74.09h1.89s-.02-1.11-.02-1.11h-1.89s.02,1.11.02,1.11Zm0,0"/>
    <path d="m150.22,72.99h1.89s-.02-1.1-.02-1.1h-1.89s.02,1.1.02,1.1Zm0,0"/>
    <path d="m155.81,69.67h1.88s-.02-1.1-.02-1.1h-1.88s.02,1.1.02,1.1Zm0,0"/>
    <path d="m124.06,90.73h1.91s-.03-1.11-.03-1.11h-1.91s.03,1.11.03,1.11Zm0,0"/>
    <path d="m125.94,89.62h1.91s-.03-1.11-.03-1.11h-1.91s.03,1.11.03,1.11Zm0,0"/>
    <path d="m133.44,85.18h1.9s-.03-1.11-.03-1.11h-1.9s.03,1.11.03,1.11Zm0,0"/>
    <path d="m140.93,80.74h1.89s-.03-1.11-.03-1.11h-1.89s.03,1.11.03,1.11Zm0,0"/>
    <path d="m142.8,79.63h1.89s-.02-1.11-.02-1.11h-1.89s.03,1.11.03,1.11Zm0,0"/>
    <path d="m155.86,71.9h1.88s-.02-1.1-.02-1.1h-1.88s.02,1.1.02,1.1Zm0,0"/>
    <path d="m122.25,94.06h1.91s-.03-1.11-.03-1.11h-1.91s.03,1.11.03,1.11Zm0,0"/>
    <path d="m127.88,90.73h1.9s-.03-1.11-.03-1.11h-1.9s.03,1.11.03,1.11Zm0,0"/>
    <path d="m137.24,85.18h1.9s-.03-1.11-.03-1.11h-1.9s.03,1.11.03,1.11Zm0,0"/>
    <path d="m144.71,80.74h1.89s-.02-1.11-.02-1.11h-1.89s.02,1.11.02,1.11Zm0,0"/>
    <path d="m146.58,79.64h1.89s-.02-1.11-.02-1.11h-1.89s.02,1.11.02,1.11Zm0,0"/>
    <path d="m148.45,78.53h1.89s-.02-1.11-.02-1.11h-1.89s.02,1.11.02,1.11Zm0,0"/>
    <path d="m154.04,75.22h1.88s-.02-1.1-.02-1.1h-1.88s.02,1.1.02,1.1Zm0,0"/>
    <path d="m157.76,73.01h1.88s-.02-1.1-.02-1.1h-1.88s.02,1.1.02,1.1Zm0,0"/>
    <path d="m159.62,71.91h1.88s-.02-1.1-.02-1.1h-1.88s.02,1.1.02,1.1Zm0,0"/>
    <path d="m57.15,67.09c-3.67,2.15-3.52,5.65.34,7.82s9.92,2.17,13.57.03c3.64-2.14,3.51-5.62-.31-7.79-3.83-2.18-9.92-2.21-13.59-.06h0Zm11.83,6.68c-2.55,1.5-6.81,1.49-9.5-.03-2.69-1.52-2.8-3.97-.23-5.47,2.56-1.5,6.83-1.48,9.51.04,2.67,1.52,2.77,3.96.22,5.46h0Zm0,0"/>
    <path d="m99.56,42.3c-3.64,2.12-3.52,5.63.26,7.83,3.76,2.19,9.74,2.24,13.34.12s3.51-5.6-.23-7.8c-3.75-2.2-9.74-2.27-13.37-.15h0Zm11.57,6.76c-2.53,1.48-6.72,1.44-9.34-.09-2.63-1.53-2.72-3.99-.18-5.48,2.54-1.48,6.74-1.44,9.36.1s2.69,3.98.16,5.46h0Zm0,0"/>
    <path d="m101.2,91.97c-3.59,2.12-3.48,5.55.25,7.64,3.72,2.09,9.61,2.06,13.18-.05s3.46-5.52-.23-7.61c-3.7-2.1-9.62-2.09-13.21.03h0Zm11.43,6.45c-2.49,1.48-6.63,1.5-9.23.04s-2.68-3.86-.17-5.34c2.51-1.48,6.65-1.49,9.24-.02,2.58,1.46,2.65,3.85.16,5.33h0Zm0,0"/>
    <path d="m66.84,69.36c1.64.93,1.7,2.43.14,3.34s-4.17.91-5.82-.02-1.71-2.43-.14-3.35,4.18-.91,5.82.02h0Zm0,0"/>
    <path d="m109.08,44.64c1.61.94,1.65,2.44.1,3.35s-4.11.88-5.72-.06-1.66-2.44-.11-3.35c1.55-.91,4.12-.88,5.73.06h0Zm0,0"/>
    <path d="m110.59,94.13c1.59.9,1.63,2.36.1,3.27s-4.06.92-5.65.02-1.64-2.36-.1-3.27c1.54-.91,4.07-.91,5.66-.02h0Zm0,0"/>
  </g>
</svg>